<?xml version="1.0" encoding="UTF-8"?>
<svg width="88px" height="18px" viewBox="0 0 88 18" version="1.1" xmlns="http://www.w3.org/2000/svg" xmlns:xlink="http://www.w3.org/1999/xlink">
    <!-- Generator: Sketch 48.2 (47327) - http://www.bohemiancoding.com/sketch -->
    <title>dtb-logo-red</title>
    <desc>Created with Sketch.</desc>
    <defs></defs>
    <g id="Page-1" stroke="none" stroke-width="1" fill="none" fill-rule="evenodd">
        <g id="dtb-logo-red" fill-rule="nonzero">
            <path d="M0,0 L0,18 L11.4036788,18 C13.2108975,17.9490255 13.8727702,17.8724244 14.7893807,17.6428997 C15.8838346,17.362679 16.6983831,16.9289777 17.0802113,16.7250795 C18.1490803,16.1131065 18.7600612,15.4502983 19.0909976,15.0934765 C20.8982162,12.9262231 21,10.0196996 21,9.20382852 C21,8.23517304 20.9491081,5.94020472 19.4217949,3.7476033 C18.352926,2.19260142 16.5201223,0.433422831 12.3454571,0.0763225293 C11.6328314,0.0253479933 10.9200667,0 10.2073021,0 L0,0 Z M6.2875134,4.28339304 L9.36716856,4.28339304 C9.80030592,4.28339304 11.7093083,4.23241851 13.0582218,5.25204849 C14.6362878,6.47599446 14.7129038,8.49004572 14.7129038,9.05104416 C14.7129038,9.53530227 14.6875968,10.504097 14.1275078,11.6517204 C13.6947877,12.5694013 12.9055461,13.5638226 10.6909142,13.8443218 C10.3090858,13.8952964 9.92725755,13.9205051 9.57115332,13.9205051 L6.2875134,13.9205051 L6.2875134,4.28339304 Z" id="Fill-21" fill="#1A1919"></path>
            <polyline id="Fill-22" fill="#1A1919" points="39.9999999 0 21 0 21 4.0342014 27.3167453 4.0342014 27.3167453 18 33.7086867 18 33.7086867 4.0342014 39.9999999 4.0342014 39.9999999 0"></polyline>
            <path d="M41.0000001,0 L41.0000001,18 L55.0048159,18 C57.3259666,17.9232909 60.266044,17.821198 61.9426261,15.8295508 C62.9740765,14.5786346 63.0000001,13.2510092 63.0000001,12.6894986 C63.0000001,11.3618732 62.7423136,10.2639568 61.6588753,9.37036548 C60.7560568,8.60439024 59.7246064,8.42558829 58.5896026,8.24678634 C60.059923,7.88946141 60.8851114,7.19991633 61.2979168,6.69070734 C62.0457571,5.75457735 62.0716807,4.6162143 62.0716807,4.21146918 C62.0716807,3.06376155 61.6847989,2.29778628 61.4526133,1.88941492 C60.3436738,0.127755523 58.1255131,0.0256626814 56.2943755,0 L41.0000001,0 Z M47.5765701,4.05944568 L54.0760737,4.05944568 C54.6694995,4.08482943 55.2625023,4.13545743 55.6237425,4.69222605 C55.8040806,5.02095942 55.8300042,5.32444851 55.8300042,5.45108826 C55.8300042,5.67898404 55.7525151,5.95708938 55.6493841,6.15932247 C55.2370014,6.89363778 54.2826174,6.84259137 53.6119845,6.84259137 L47.5765701,6.84259137 L47.5765701,4.05944568 Z M47.5250046,10.7490373 L54.8757612,10.7490373 C55.3140678,10.774421 56.526279,10.774421 56.526279,12.2298019 C56.526279,13.0468235 56.1137553,13.6338574 55.2885669,13.8126593 C54.9532503,13.8895079 54.4373139,13.8895079 54.3857484,13.8895079 L47.5250046,13.8895079 L47.5250046,10.7490373 Z" id="Fill-23" fill="#1A1919"></path>
            <polyline id="Fill-24" fill="#D8232A" points="69.9999999 13.6588602 75.3333795 13.6588602 75.3333795 12.1705699 69.9999999 12.1705699 70.0013859 9.99999999 78 9.99999999 77.998614 18 75.3333795 18 75.3333795 15.8294301 69.9999999 15.8294301 69.9999999 13.6588602"></polyline>
            <polyline id="Fill-25" fill="#D8232A" points="87.9999999 13.6588602 82.6666668 13.6588602 82.6666668 12.1705699 87.9999999 12.1705699 87.9987525 9.99999999 80.0000001 9.99999999 80.0013861 18 82.6666668 18 82.6666668 15.8294301 87.9999999 15.8294301 87.9999999 13.6588602"></polyline>
            <polyline id="Fill-26" fill="#D8232A" points="69.9999999 4.34100447 75.3333795 4.34100447 75.3333795 5.82943008 69.9999999 5.82943008 70.0013859 8.00000001 78 8.00000001 77.998614 0 75.3333795 0 75.3333795 2.17056992 69.9999999 2.17056992 69.9999999 4.34100447"></polyline>
            <polyline id="Fill-27" fill="#D8232A" points="87.9999999 4.34100447 82.6666668 4.34100447 82.6666668 5.82943008 87.9999999 5.82943008 87.9987525 8.00000001 80.0000001 8.00000001 80.0013861 0 82.6666668 0 82.6666668 2.17056992 87.9999999 2.17056992 87.9999999 4.34100447"></polyline>
        </g>
    </g>
</svg>